<?xml version="1.0" encoding="UTF-8"?>
<svg id="Capa_1" xmlns="http://www.w3.org/2000/svg" version="1.1" viewBox="0 0 16 16">
  <!-- Generator: Adobe Illustrator 29.0.0, SVG Export Plug-In . SVG Version: 2.1.0 Build 186)  -->
  <defs>
    <style>
      .st0 {
        stroke: #000;
        stroke-miterlimit: 10;
        stroke-width: .5px;
      }

      .st1 {
        fill: #f9f9f9;
      }
    </style>
  </defs>
  <path class="st0" d="M8,16c4.2-.2,7.5-3.7,7.5-7.5,0-3.2-2.2-6.2-5.5-7.2-.5-.1-1.1-.3-1.9-.3-.8,0-1.5.1-2,.3-.5.1-3,.9-4.5,3.5-.2.3-1.6,2.8-.7,5.7.9,3,3.7,5.2,7.2,5.5ZM14.5,8.5c0,3.6-2.9,6.5-6.5,6.5S1.5,12.1,1.5,8.5s2.9-6.5,6.5-6.5,6.5,2.9,6.5,6.5"/>
  <path d="M6.9,7.4l5.2-3-3,5.2-5.2,3,3-5.2h0Z"/>
  <polygon class="st1" points="8 7.6 10.6 6.1 9.1 8.5 8 7.6"/>
</svg>